<svg width="60" height="60" viewBox="0 0 60 60" fill="none" xmlns="http://www.w3.org/2000/svg">
<g clip-path="url(#clip0_54_352)">
<path d="M22.375 28.823C20.5062 28.823 18.9896 30.3397 18.9896 32.2084C18.9896 34.0772 20.5062 35.5938 22.375 35.5938C24.2437 35.5938 25.7604 34.0772 25.7604 32.2084C25.7604 30.3397 24.2437 28.823 22.375 28.823ZM38.625 28.823C36.7562 28.823 35.2396 30.3397 35.2396 32.2084C35.2396 34.0772 36.7562 35.5938 38.625 35.5938C40.4937 35.5938 42.0104 34.0772 42.0104 32.2084C42.0104 30.3397 40.4937 28.823 38.625 28.823ZM30.5 2.41675C15.55 2.41675 3.41666 14.5501 3.41666 29.5001C3.41666 44.4501 15.55 56.5834 30.5 56.5834C45.45 56.5834 57.5833 44.4501 57.5833 29.5001C57.5833 14.5501 45.45 2.41675 30.5 2.41675ZM30.5 51.1668C18.5562 51.1668 8.83332 41.4438 8.83332 29.5001C8.83332 28.7147 8.88749 27.9293 8.96874 27.1709C15.3604 24.3272 20.425 19.1001 23.0792 12.6272C27.9812 19.5605 36.0521 24.0834 45.1792 24.0834C47.2917 24.0834 49.3229 23.8397 51.2729 23.3792C51.8417 25.3022 52.1667 27.3605 52.1667 29.5001C52.1667 41.4438 42.4437 51.1668 30.5 51.1668Z" fill="white"/>
</g>
<defs>
<clipPath id="clip0_54_352">
<rect width="60" height="60" fill="white"/>
</clipPath>
</defs>
</svg>
