<svg width="24" height="24" viewBox="0 0 24 24" fill="none" xmlns="http://www.w3.org/2000/svg">
<path d="M16.175 12.9982H5C4.71667 12.9982 4.47917 12.9023 4.2875 12.7107C4.09583 12.519 4 12.2815 4 11.9982C4 11.7148 4.09583 11.4773 4.2875 11.2857C4.47917 11.094 4.71667 10.9982 5 10.9982H16.175L11.275 6.09816C11.075 5.89816 10.9792 5.66482 10.9875 5.39816C10.9958 5.13149 11.1 4.89816 11.3 4.69816C11.5 4.51482 11.7333 4.41899 12 4.41066C12.2667 4.40232 12.5 4.49816 12.7 4.69816L19.3 11.2982C19.4 11.3982 19.4708 11.5065 19.5125 11.6232C19.5542 11.7398 19.575 11.8648 19.575 11.9982C19.575 12.1315 19.5542 12.2565 19.5125 12.3732C19.4708 12.4898 19.4 12.5982 19.3 12.6982L12.7 19.2982C12.5167 19.4815 12.2875 19.5732 12.0125 19.5732C11.7375 19.5732 11.5 19.4815 11.3 19.2982C11.1 19.0982 11 18.8607 11 18.5857C11 18.3107 11.1 18.0732 11.3 17.8732L16.175 12.9982Z" fill="#111111"/>
</svg>
