<svg width="24" height="24" viewBox="0 0 24 24" fill="none" xmlns="http://www.w3.org/2000/svg">
<path d="M12 21.4996C10.2013 21.4996 8.66827 20.8659 7.40095 19.5986C6.13365 18.3313 5.5 16.7983 5.5 14.9996V9.03806C5.5 7.23935 6.13365 5.70634 7.40095 4.43904C8.66827 3.17174 10.2013 2.53809 12 2.53809C13.7987 2.53809 15.3317 3.17174 16.599 4.43904C17.8663 5.70634 18.5 7.23935 18.5 9.03806V14.9996C18.5 16.7983 17.8663 18.3313 16.599 19.5986C15.3317 20.8659 13.7987 21.4996 12 21.4996ZM12.7499 9.03806H17C17 7.78036 16.592 6.68676 15.7759 5.75726C14.9599 4.82778 13.9512 4.27522 12.7499 4.09959V9.03806ZM6.99997 9.03806H11.25V4.09959C10.0487 4.27522 9.04006 4.82778 8.22403 5.75726C7.40799 6.68676 6.99997 7.78036 6.99997 9.03806ZM12 19.9996C13.3833 19.9996 14.5625 19.5121 15.5375 18.5371C16.5125 17.5621 17 16.3829 17 14.9996V10.538H6.99997V14.9996C6.99997 16.3829 7.48747 17.5621 8.46247 18.5371C9.43747 19.5121 10.6166 19.9996 12 19.9996Z" fill="white"/>
</svg>
