<svg width="24" height="24" viewBox="0 0 24 24" fill="none" xmlns="http://www.w3.org/2000/svg">
<path d="M14 11.4V12.65C14 12.9333 14.0958 13.1708 14.2875 13.3625C14.4792 13.5542 14.7167 13.65 15 13.65C15.2833 13.65 15.5208 13.5542 15.7125 13.3625C15.9042 13.1708 16 12.9333 16 12.65V9C16 8.71667 15.9042 8.47917 15.7125 8.2875C15.5208 8.09583 15.2833 8 15 8H11.35C11.0667 8 10.8292 8.09583 10.6375 8.2875C10.4458 8.47917 10.35 8.71667 10.35 9C10.35 9.28333 10.4458 9.52083 10.6375 9.7125C10.8292 9.90417 11.0667 10 11.35 10H12.575L8.2 14.375C8.01667 14.5583 7.925 14.7875 7.925 15.0625C7.925 15.3375 8.01667 15.575 8.2 15.775C8.4 15.975 8.6375 16.075 8.9125 16.075C9.1875 16.075 9.425 15.975 9.625 15.775L14 11.4ZM12 22C10.6167 22 9.31667 21.7375 8.1 21.2125C6.88333 20.6875 5.825 19.975 4.925 19.075C4.025 18.175 3.3125 17.1167 2.7875 15.9C2.2625 14.6833 2 13.3833 2 12C2 10.6167 2.2625 9.31667 2.7875 8.1C3.3125 6.88333 4.025 5.825 4.925 4.925C5.825 4.025 6.88333 3.3125 8.1 2.7875C9.31667 2.2625 10.6167 2 12 2C13.3833 2 14.6833 2.2625 15.9 2.7875C17.1167 3.3125 18.175 4.025 19.075 4.925C19.975 5.825 20.6875 6.88333 21.2125 8.1C21.7375 9.31667 22 10.6167 22 12C22 13.3833 21.7375 14.6833 21.2125 15.9C20.6875 17.1167 19.975 18.175 19.075 19.075C18.175 19.975 17.1167 20.6875 15.9 21.2125C14.6833 21.7375 13.3833 22 12 22ZM12 20C14.2333 20 16.125 19.225 17.675 17.675C19.225 16.125 20 14.2333 20 12C20 9.76667 19.225 7.875 17.675 6.325C16.125 4.775 14.2333 4 12 4C9.76667 4 7.875 4.775 6.325 6.325C4.775 7.875 4 9.76667 4 12C4 14.2333 4.775 16.125 6.325 17.675C7.875 19.225 9.76667 20 12 20Z" fill="white"/>
</svg>
