<svg width="34" height="34" viewBox="0 0 34 34" fill="none" xmlns="http://www.w3.org/2000/svg">
<path d="M31.7691 33.9999C28.223 33.9999 24.5666 33.105 20.8 31.3153C17.0333 29.5255 13.5198 26.9973 10.2596 23.7307C6.99937 20.464 4.47438 16.9506 2.68465 13.1904C0.894883 9.43012 0 5.77694 0 2.2308C0 1.59343 0.210633 1.0623 0.6319 0.637402C1.05313 0.212469 1.57968 0 2.21155 0H7.91775C8.43922 0 8.87943 0.169883 9.2384 0.50965C9.59737 0.849383 9.84993 1.28848 9.9961 1.82695L11.1886 7.18585C11.2577 7.69012 11.241 8.14353 11.1384 8.5461C11.0358 8.94867 10.841 9.28707 10.5539 9.5613L5.83455 14.1577C6.72685 15.6884 7.66917 17.1064 8.6615 18.4115C9.6538 19.7166 10.7269 20.9423 11.8807 22.0884C13.1269 23.3679 14.4525 24.5359 15.8577 25.5923C17.2628 26.6487 18.7666 27.609 20.3692 28.4731L24.9077 23.8039C25.241 23.4372 25.6141 23.1904 26.0269 23.0635C26.4398 22.9365 26.8706 22.9064 27.3192 22.9731L32.173 24.0423C32.7114 24.1628 33.1505 24.4339 33.4903 24.8555C33.83 25.2772 33.9999 25.7548 33.9999 26.2885V31.7884C33.9999 32.4202 33.7874 32.9468 33.3625 33.368C32.9376 33.7893 32.4065 33.9999 31.7691 33.9999ZM4.69995 12.1L8.8269 8.09615C8.8782 8.04485 8.91345 7.97433 8.93265 7.8846C8.95188 7.79483 8.9551 7.7115 8.9423 7.6346L7.85 2.5769C7.83717 2.47433 7.7955 2.39742 7.725 2.34615C7.65447 2.29485 7.56792 2.2692 7.46535 2.2692H2.53845C2.46152 2.2692 2.39742 2.29485 2.34615 2.34615C2.29485 2.39742 2.2692 2.46152 2.2692 2.53845C2.2974 3.92562 2.51278 5.40382 2.91535 6.97305C3.31792 8.54228 3.91278 10.2513 4.69995 12.1ZM22.5153 29.5577C23.882 30.2294 25.3781 30.7525 27.0037 31.1269C28.6294 31.5012 30.1153 31.7089 31.4615 31.75C31.5384 31.75 31.6025 31.7243 31.6538 31.673C31.7051 31.6217 31.7307 31.5576 31.7307 31.4807V26.573C31.7307 26.4704 31.7051 26.3839 31.6538 26.3134C31.6025 26.2429 31.5256 26.2012 31.423 26.1884L26.8884 25.2538C26.8115 25.241 26.7442 25.2442 26.6865 25.2634C26.6288 25.2826 26.5679 25.3179 26.5037 25.3692L22.5153 29.5577Z" fill="white"/>
</svg>
