<svg width="33" height="32" viewBox="0 0 33 32" fill="none" xmlns="http://www.w3.org/2000/svg">
<path d="M26.1408 17.9817H2.27342C1.70819 17.9817 1.2368 17.793 0.859269 17.4154C0.481736 17.0379 0.292969 16.5665 0.292969 16.0013C0.292969 15.4361 0.481736 14.9647 0.859269 14.5871C1.2368 14.2096 1.70819 14.0208 2.27342 14.0208H26.1408L15.6104 3.49045C15.2162 3.09625 15.0136 2.62686 15.0027 2.0823C14.9917 1.53773 15.1841 1.06595 15.5799 0.666948C15.9756 0.265181 16.4471 0.0690163 16.9944 0.0784496C17.5417 0.087883 18.0159 0.289697 18.4169 0.683897L32.3169 14.5839C32.5196 14.7914 32.6735 15.0164 32.7787 15.2589C32.8839 15.5015 32.9365 15.75 32.9365 16.0044C32.9365 16.2589 32.8839 16.5066 32.7787 16.7477C32.6735 16.9888 32.5196 17.2125 32.3169 17.4187L18.3887 31.3187C17.9662 31.7318 17.4914 31.9383 16.9642 31.9383C16.437 31.9383 15.9763 31.7296 15.5821 31.3121C15.1879 30.9166 14.9908 30.4543 14.9908 29.9252C14.9908 29.3962 15.1879 28.9346 15.5821 28.5404L26.1408 17.9817Z" fill="#777777"/>
</svg>
