<svg width="19" height="10" viewBox="0 0 19 10" fill="none" xmlns="http://www.w3.org/2000/svg">
<path d="M8.3915 9.53495L0.28445 1.47795C0.202783 1.39625 0.134966 1.30392 0.0809998 1.20095C0.0269998 1.09798 0 0.988801 0 0.873401C0 0.630968 0.0794159 0.424801 0.238249 0.254901C0.397049 0.0849678 0.6035 0 0.8576 0H17.7359C17.99 0 18.1964 0.0872338 18.3552 0.2617C18.5141 0.436167 18.5935 0.642368 18.5935 0.880301C18.5935 0.939801 18.4982 1.13948 18.3077 1.47935L10.202 9.535C10.0876 9.64933 9.95242 9.74183 9.79635 9.8125C9.64028 9.88313 9.47338 9.91845 9.29565 9.91845C9.11795 9.91845 8.95142 9.88313 8.79605 9.8125C8.64072 9.74183 8.50587 9.64932 8.3915 9.53495Z" fill="#6B6B6B"/>
</svg>
