<svg width="48" height="48" viewBox="0 0 48 48" fill="none" xmlns="http://www.w3.org/2000/svg">
<path d="M31.3953 26.604H42.6323V19.3671H31.3953V26.604ZM31.9997 29.9997L29.7236 32.2757C29.4149 32.5844 29.0504 32.6574 28.6301 32.4946C28.2098 32.3318 27.9997 32.0356 27.9997 31.6062V17.9801C27.9997 17.4232 28.1905 16.9539 28.5722 16.5722C28.9539 16.1905 29.4232 15.9997 29.9801 15.9997H44.0192C44.5761 15.9997 45.0454 16.1905 45.4271 16.5722C45.8088 16.9539 45.9997 17.4232 45.9997 17.9801V28.0192C45.9997 28.5761 45.8088 29.0454 45.4271 29.4271C45.0454 29.8088 44.5761 29.9997 44.0192 29.9997H31.9997ZM13.3106 41.1888V42.6888H34.6888V41.1888H13.3106ZM13.3106 6.81056H34.6888V5.31056H13.3106V6.81056ZM13.3106 46.6497C12.2213 46.6497 11.2888 46.2619 10.5132 45.4862C9.73746 44.7105 9.34961 43.778 9.34961 42.6888V5.31056C9.34961 4.22129 9.73746 3.28883 10.5132 2.51316C11.2888 1.73746 12.2213 1.34961 13.3106 1.34961H34.6888C35.778 1.34961 36.7105 1.73746 37.4862 2.51316C38.2619 3.28883 38.6497 4.22129 38.6497 5.31056V10.3192C38.6497 10.8761 38.458 11.3454 38.0746 11.7271C37.6912 12.1088 37.2198 12.2997 36.6605 12.2997C36.2518 12.2997 35.8964 12.1889 35.5942 11.9673C35.292 11.7458 35.0844 11.4602 34.9714 11.1106V9.81056H13.3106V38.1888H34.9714V36.8888C35.0844 36.5391 35.297 36.2535 35.609 36.032C35.921 35.8104 36.2774 35.6997 36.678 35.6997C37.2374 35.6997 37.7058 35.8905 38.0834 36.2722C38.4609 36.6539 38.6497 37.1232 38.6497 37.6801V42.6888C38.6497 43.778 38.2619 44.7105 37.4862 45.4862C36.7105 46.2618 35.778 46.6497 34.6888 46.6497L13.3106 46.6497Z" fill="white"/>
</svg>
