<svg width="44" height="40" viewBox="0 0 44 40" fill="none" xmlns="http://www.w3.org/2000/svg">
<path d="M9.32967 39.707C8.34474 39.707 7.42692 39.3848 6.57622 38.7403C5.72552 38.0959 5.16215 37.3072 4.88612 36.3743C4.05279 33.5454 3.36929 31.104 2.83562 29.0502C2.30192 26.9964 1.87664 25.1872 1.55977 23.6226C1.2429 22.058 1.02024 20.6758 0.891769 19.4759C0.763402 18.2761 0.699219 17.1176 0.699219 16.0004C0.699219 12.7412 1.83465 9.97062 4.10552 7.68862C6.37642 5.40662 9.14407 4.26562 12.4085 4.26562H23.1259C24.0734 3.06562 25.2706 2.09896 26.7175 1.36563C28.1645 0.632292 29.7424 0.265625 31.4515 0.265625C32.5486 0.265625 33.4406 0.623225 34.1276 1.33842C34.8145 2.05366 35.158 2.92216 35.158 3.94392C35.158 4.17339 35.133 4.40287 35.083 4.63237C35.033 4.86187 34.9747 5.07224 34.908 5.26347C34.7935 5.55477 34.6874 5.85792 34.5896 6.17292C34.4917 6.48789 34.4095 6.83836 34.3428 7.22433L38.3841 11.2656H41.3189C41.8758 11.2656 42.3451 11.4618 42.7268 11.8541C43.1085 12.2464 43.2993 12.7198 43.2993 13.2743V24.9917C43.2993 25.4519 43.1747 25.859 42.9254 26.213C42.6762 26.5669 42.3377 26.8033 41.9102 26.9222L37.3704 28.3805L34.8363 36.8787C34.5842 37.7189 34.1084 38.4004 33.4089 38.923C32.7094 39.4457 31.9077 39.707 31.0036 39.707H25.734C24.7451 39.707 23.8707 39.4179 23.1108 38.8399C22.3509 38.2618 21.8956 37.5508 21.7449 36.707V35.707H18.084V36.707C17.9333 37.5508 17.4807 38.2618 16.7264 38.8399C15.972 39.4179 15.1042 39.707 14.1231 39.707H9.32967ZM8.85357 35.7461H14.2644V31.7461H25.5645V35.7461H30.9753L34.1144 25.2782L39.3101 23.5809V15.2548H36.7101L30.3101 8.85477C30.3435 8.32581 30.4351 7.65299 30.5851 6.83633C30.7351 6.01966 30.9435 5.10189 31.2101 4.08302C29.8333 4.46856 28.6043 5.03741 27.5232 5.78958C26.442 6.54174 25.6464 7.36347 25.1364 8.25477H12.4057C10.2665 8.25477 8.44069 9.01116 6.92842 10.5239C5.41619 12.0367 4.66007 13.8631 4.66007 16.0031C4.66007 17.4008 5.02202 19.8227 5.74592 23.2685C6.46985 26.7144 7.50574 30.8736 8.85357 35.7461ZM29.971 19.7918C30.6592 19.7918 31.2446 19.553 31.7273 19.0755C32.2101 18.5979 32.4514 18.0099 32.4514 17.3113C32.4514 16.6128 32.209 16.0247 31.7242 15.5472C31.2394 15.0696 30.6513 14.8309 29.9601 14.8309C29.2688 14.8309 28.6796 15.0696 28.1927 15.5472C27.7057 16.0247 27.4622 16.6128 27.4622 17.3113C27.4622 18.0099 27.7063 18.5979 28.1945 19.0755C28.6826 19.553 29.2748 19.7918 29.971 19.7918ZM22.1192 15.0461C22.6539 15.0461 23.0962 14.8686 23.4461 14.5134C23.796 14.1583 23.971 13.7217 23.971 13.2037C23.971 12.6856 23.796 12.2501 23.4461 11.8972C23.0962 11.5443 22.6539 11.3678 22.1192 11.3678H14.8901C14.3554 11.3678 13.9178 11.5454 13.5773 11.9007C13.2368 12.2559 13.0666 12.6961 13.0666 13.2212C13.0666 13.7393 13.2433 14.1729 13.5967 14.5222C13.9502 14.8715 14.3907 15.0461 14.9184 15.0461H22.1192Z" fill="white"/>
</svg>
