<svg width="60" height="60" viewBox="0 0 60 60" fill="none" xmlns="http://www.w3.org/2000/svg">
<g clip-path="url(#clip0_54_367)">
<path d="M44.0417 13.2501H38.625V5.12508C38.625 3.6355 37.4063 2.41675 35.9167 2.41675H25.0833C23.5938 2.41675 22.375 3.6355 22.375 5.12508V13.2501H16.9583C13.9792 13.2501 11.5417 15.6876 11.5417 18.6667V48.4584C11.5417 51.4376 13.9792 53.8751 16.9583 53.8751C16.9583 55.3647 18.1771 56.5834 19.6667 56.5834C21.1563 56.5834 22.375 55.3647 22.375 53.8751H38.625C38.625 55.3647 39.8438 56.5834 41.3333 56.5834C42.8229 56.5834 44.0417 55.3647 44.0417 53.8751C47.0208 53.8751 49.4583 51.4376 49.4583 48.4584V18.6667C49.4583 15.6876 47.0208 13.2501 44.0417 13.2501ZM23.7292 45.7501H19.6667V21.3751H23.7292V45.7501ZM32.5313 45.7501H28.4688V21.3751H32.5313V45.7501ZM34.5625 13.2501H26.4375V6.47925H34.5625V13.2501ZM41.3333 45.7501H37.2708V21.3751H41.3333V45.7501Z" fill="white"/>
</g>
<defs>
<clipPath id="clip0_54_367">
<rect width="60" height="60" fill="white"/>
</clipPath>
</defs>
</svg>
