<svg width="30" height="34" viewBox="0 0 30 34" fill="none" xmlns="http://www.w3.org/2000/svg">
<path d="M2.2692 31.7295H10.0577V20.9218C10.0577 20.5131 10.1959 20.1706 10.4723 19.8942C10.7488 19.6177 11.0913 19.4795 11.5 19.4795H18.4999C18.9086 19.4795 19.2511 19.6177 19.5276 19.8942C19.804 20.1706 19.9422 20.5131 19.9422 20.9218V31.7295H27.7307V12.9347C27.7307 12.8321 27.7083 12.7391 27.6634 12.6558C27.6185 12.5724 27.5576 12.4987 27.4807 12.4346L15.3654 3.32567C15.2628 3.24874 15.141 3.21028 14.9999 3.21028C14.8589 3.21028 14.7371 3.24874 14.6345 3.32567L2.5192 12.4346C2.4423 12.4987 2.3814 12.5724 2.3365 12.6558C2.29163 12.7391 2.2692 12.8321 2.2692 12.9347V31.7295ZM0 31.7295V12.9411C0 12.4757 0.0990497 12.0417 0.29715 11.6391C0.495216 11.2366 0.783349 10.9026 1.16155 10.6372L13.2769 1.50267C13.7698 1.11547 14.3405 0.921875 14.9889 0.921875C15.6373 0.921875 16.2153 1.11547 16.723 1.50267L28.8383 10.6372C29.2165 10.9026 29.5047 11.2366 29.7028 11.6391C29.9009 12.0417 29.9999 12.4757 29.9999 12.9411V31.7295C29.9999 32.3464 29.7759 32.8789 29.328 33.3268C28.8801 33.7747 28.3477 33.9987 27.7307 33.9987H19.1153C18.7067 33.9987 18.3641 33.8604 18.0877 33.584C17.8113 33.3075 17.673 32.965 17.673 32.5563V21.7487H12.3268V32.5563C12.3268 32.965 12.1886 33.3075 11.9122 33.584C11.6358 33.8604 11.2932 33.9987 10.8845 33.9987H2.2692C1.65223 33.9987 1.1198 33.7747 0.671899 33.3268C0.223966 32.8789 0 32.3464 0 31.7295Z" fill="#111111"/>
</svg>
