<svg width="20" height="11" viewBox="0 0 20 11" fill="none" xmlns="http://www.w3.org/2000/svg">
<path d="M9.09462 10.3826L0.987575 2.32561C0.905908 2.24391 0.838091 2.15157 0.784125 2.04861C0.730125 1.94564 0.703125 1.83646 0.703125 1.72106C0.703125 1.47862 0.782541 1.27246 0.941374 1.10256C1.10017 0.932624 1.30663 0.847656 1.56073 0.847656H18.439C18.6931 0.847656 18.8996 0.93489 19.0584 1.10936C19.2172 1.28382 19.2966 1.49002 19.2966 1.72796C19.2966 1.78746 19.2013 1.98714 19.0108 2.32701L10.9051 10.3827C10.7907 10.497 10.6555 10.5895 10.4995 10.6602C10.3434 10.7308 10.1765 10.7661 9.99877 10.7661C9.82107 10.7661 9.65454 10.7308 9.49917 10.6602C9.34384 10.5895 9.20899 10.497 9.09462 10.3826Z" fill="#111111"/>
</svg>
