<svg width="38" height="30" viewBox="0 0 38 30" fill="none" xmlns="http://www.w3.org/2000/svg">
<path d="M2.88465 29.9999C2.10035 29.9999 1.4235 29.7152 0.8541 29.1458C0.2847 28.5764 0 27.8996 0 27.1153V2.88465C0 2.10035 0.2847 1.4235 0.8541 0.854102C1.4235 0.284702 2.10035 0 2.88465 0H35.1153C35.8996 0 36.5764 0.284702 37.1458 0.854102C37.7152 1.4235 37.9999 2.10035 37.9999 2.88465V27.1153C37.9999 27.8996 37.7152 28.5764 37.1458 29.1458C36.5764 29.7152 35.8996 29.9999 35.1153 29.9999H2.88465ZM35.7307 4.2307L19.8 14.773C19.6666 14.8397 19.5384 14.898 19.4154 14.948C19.2923 14.998 19.1538 15.023 19 15.023C18.8461 15.023 18.7077 14.998 18.5846 14.948C18.4615 14.898 18.3397 14.8397 18.2192 14.773L2.2692 4.2307V27.1153C2.2692 27.2948 2.3269 27.4422 2.4423 27.5576C2.5577 27.673 2.70515 27.7307 2.88465 27.7307H35.1153C35.2948 27.7307 35.4422 27.673 35.5576 27.5576C35.673 27.4422 35.7307 27.2948 35.7307 27.1153V4.2307ZM19 12.9192L35.2807 2.2692H2.7692L19 12.9192ZM2.2692 4.5999V3.02925V3.0792V2.2692V3.0538V2.98895V4.5999Z" fill="#111111"/>
</svg>
