<svg width="24" height="24" viewBox="0 0 24 24" fill="none" xmlns="http://www.w3.org/2000/svg">
<path d="M4 12C4 14.2333 4.775 16.125 6.325 17.675C7.875 19.225 9.76667 20 12 20C14.2333 20 16.125 19.225 17.675 17.675C19.225 16.125 20 14.2333 20 12C20 10.85 19.7625 9.75 19.2875 8.7C18.8125 7.65 18.1333 6.75 17.25 6L19 6C19.2833 6 19.5208 5.90417 19.7125 5.7125C19.9042 5.52083 20 5.28333 20 5C20 4.71667 19.9042 4.47917 19.7125 4.2875C19.5208 4.09583 19.2833 4 19 4L14 4C13.7167 4 13.4792 4.09583 13.2875 4.2875C13.0958 4.47917 13 4.71667 13 5L13 10C13 10.2833 13.0958 10.5208 13.2875 10.7125C13.4792 10.9042 13.7167 11 14 11C14.2833 11 14.5208 10.9042 14.7125 10.7125C14.9042 10.5208 15 10.2833 15 10L15 6.8C15.9333 7.33333 16.6667 8.0625 17.2 8.9875C17.7333 9.9125 18 10.9167 18 12C18 13.6667 17.4167 15.0833 16.25 16.25C15.0833 17.4167 13.6667 18 12 18C10.3333 18 8.91667 17.4167 7.75 16.25C6.58333 15.0833 6 13.6667 6 12C6 10.8667 6.2875 9.82917 6.8625 8.8875C7.4375 7.94583 8.20833 7.21667 9.175 6.7C9.40833 6.56667 9.57083 6.37917 9.6625 6.1375C9.75417 5.89583 9.75833 5.65 9.675 5.4C9.59167 5.13333 9.41667 4.94167 9.15 4.825C8.88333 4.70833 8.63333 4.71667 8.4 4.85C7.06667 5.53333 6 6.50833 5.2 7.775C4.4 9.04167 4 10.45 4 12Z" fill="#111111"/>
</svg>
