<svg width="60" height="60" viewBox="0 0 60 60" fill="none" xmlns="http://www.w3.org/2000/svg">
<g clip-path="url(#clip0_54_357)">
<path d="M49.2417 13.2772C48.7 11.6792 47.1833 10.5417 45.3958 10.5417H15.6042C13.8167 10.5417 12.3271 11.6792 11.7583 13.2772L6.125 29.5001V51.1667C6.125 52.6563 7.34375 53.8751 8.83333 53.8751H11.5417C13.0312 53.8751 14.25 52.6563 14.25 51.1667V48.4584H46.75V51.1667C46.75 52.6563 47.9688 53.8751 49.4583 53.8751H52.1667C53.6562 53.8751 54.875 52.6563 54.875 51.1667V29.5001L49.2417 13.2772ZM18.3125 40.3334C16.0646 40.3334 14.25 38.5188 14.25 36.2709C14.25 34.023 16.0646 32.2084 18.3125 32.2084C20.5604 32.2084 22.375 34.023 22.375 36.2709C22.375 38.5188 20.5604 40.3334 18.3125 40.3334ZM42.6875 40.3334C40.4396 40.3334 38.625 38.5188 38.625 36.2709C38.625 34.023 40.4396 32.2084 42.6875 32.2084C44.9354 32.2084 46.75 34.023 46.75 36.2709C46.75 38.5188 44.9354 40.3334 42.6875 40.3334ZM13.7354 24.0834L16.5521 15.9584H44.4208L47.2375 24.0834H13.7354Z" fill="white"/>
</g>
<defs>
<clipPath id="clip0_54_357">
<rect width="60" height="60" fill="white"/>
</clipPath>
</defs>
</svg>
