<svg width="20" height="11" viewBox="0 0 20 11" fill="none" xmlns="http://www.w3.org/2000/svg">
<path d="M10.9054 0.617393L19.0124 8.67439C19.0941 8.75609 19.1619 8.84843 19.2159 8.95139C19.2699 9.05436 19.2969 9.16354 19.2969 9.27894C19.2969 9.52138 19.2175 9.72754 19.0586 9.89744C18.8998 10.0674 18.6934 10.1523 18.4393 10.1523L1.56097 10.1523C1.30687 10.1523 1.10043 10.0651 0.941626 9.89064C0.782792 9.71618 0.703375 9.50997 0.703375 9.27204C0.703375 9.21254 0.798657 9.01286 0.989224 8.67299L9.09493 0.617342C9.20926 0.503009 9.34446 0.410509 9.50053 0.339843C9.65659 0.269209 9.82349 0.233893 10.0012 0.233893C10.1789 0.233893 10.3455 0.269209 10.5008 0.339843C10.6562 0.41051 10.791 0.503026 10.9054 0.617393Z" fill="#111111"/>
</svg>
