<svg width="24" height="24" viewBox="0 0 24 24" fill="none" xmlns="http://www.w3.org/2000/svg">
<path d="M12.0001 14.6617C11.8796 14.6617 11.7675 14.6425 11.6636 14.604C11.5598 14.5656 11.4611 14.4996 11.3675 14.406L6.87325 9.91175C6.73478 9.7733 6.66395 9.59927 6.66075 9.38965C6.65753 9.18003 6.72837 9.00279 6.87325 8.85792C7.01812 8.71306 7.19375 8.64062 7.40015 8.64062C7.60655 8.64062 7.78218 8.71306 7.92705 8.85792L12.0001 12.931L16.0732 8.85792C16.2117 8.71947 16.3857 8.64864 16.5953 8.64542C16.8049 8.64222 16.9822 8.71306 17.127 8.85792C17.2719 9.00279 17.3444 9.17843 17.3444 9.38485C17.3444 9.59125 17.2719 9.76688 17.127 9.91175L12.6328 14.406C12.5392 14.4996 12.4405 14.5656 12.3367 14.604C12.2328 14.6425 12.1207 14.6617 12.0001 14.6617Z" fill="white"/>
</svg>
