<svg width="48" height="48" viewBox="0 0 48 48" fill="none" xmlns="http://www.w3.org/2000/svg">
<path d="M4.03419 19.0722L11.8799 4.99393C12.095 4.64833 12.3476 4.39924 12.6378 4.24668C12.928 4.09411 13.2504 4.01783 13.6051 4.01783C13.9597 4.01783 14.2817 4.09411 14.5711 4.24668C14.8604 4.39924 15.1126 4.64833 15.3277 4.99393L23.1451 19.0722C23.3683 19.404 23.4669 19.7499 23.4408 20.11C23.4147 20.47 23.3175 20.7933 23.1492 21.08C22.9868 21.3608 22.7565 21.5939 22.4584 21.7792C22.1604 21.9644 21.8147 22.057 21.4212 22.057H5.75814C5.36304 22.057 5.01579 21.9636 4.71639 21.7768C4.41699 21.5899 4.18099 21.3548 4.00839 21.0714C3.83573 20.7879 3.74106 20.4666 3.72439 20.1074C3.70773 19.7482 3.81099 19.4032 4.03419 19.0722ZM13.6821 43.3571C11.28 43.3571 9.22369 42.5055 7.51309 40.8023C5.80253 39.0991 4.94724 37.0516 4.94724 34.6599C4.94724 32.2319 5.80111 30.1723 7.50884 28.481C9.21658 26.7897 11.2695 25.944 13.6676 25.944C16.0657 25.944 18.114 26.7965 19.8125 28.5014C21.5111 30.2064 22.3604 32.2559 22.3604 34.6501C22.3604 37.052 21.5106 39.1037 19.8111 40.805C18.1116 42.5064 16.0686 43.3571 13.6821 43.3571ZM13.6811 39.3679C14.9876 39.3679 16.1006 38.9123 17.0201 38.001C17.9397 37.0896 18.3994 35.9728 18.3994 34.6506C18.3994 33.3438 17.938 32.2262 17.015 31.2977C16.092 30.3692 14.9763 29.9049 13.6679 29.9049C12.3518 29.9049 11.2342 30.3691 10.3151 31.2974C9.39599 32.2257 8.93644 33.3478 8.93644 34.6637C8.93644 35.9796 9.39478 37.0926 10.3114 38.0027C11.2281 38.9129 12.3513 39.3679 13.6811 39.3679ZM9.15599 18.0961H18.0516L13.6038 10.0875L9.15599 18.0961ZM26.169 41.3767V27.9245C26.169 27.3676 26.3599 26.8983 26.7416 26.5166C27.1233 26.1349 27.5926 25.944 28.1495 25.944H41.6017C42.1586 25.944 42.6279 26.1349 43.0096 26.5166C43.3913 26.8983 43.5822 27.3676 43.5822 27.9245V41.3767C43.5822 41.9335 43.3913 42.4028 43.0096 42.7846C42.6279 43.1662 42.1586 43.3571 41.6017 43.3571H28.1495C27.5926 43.3571 27.1233 43.1662 26.7416 42.7846C26.3599 42.4028 26.169 41.9335 26.169 41.3767ZM30.1582 39.3679H39.6212V29.9049H30.1582V39.3679ZM33.6147 20.9744L30.5299 18.3114C28.0227 16.1708 26.3357 14.489 25.469 13.2661C24.6024 12.0432 24.169 10.7134 24.169 9.27658C24.169 7.56931 24.7412 6.15661 25.8854 5.03848C27.0296 3.92038 28.4792 3.36133 30.2343 3.36133C31.1337 3.36133 31.9976 3.57105 32.826 3.99048C33.6545 4.40991 34.3471 5.00236 34.9039 5.76783C35.4452 5.00236 36.1325 4.40991 36.9659 3.99048C37.7993 3.57105 38.6684 3.36133 39.5734 3.36133C41.3285 3.36133 42.7735 3.92038 43.9082 5.03848C45.043 6.15661 45.6104 7.56931 45.6104 9.27658C45.6104 10.7134 45.1771 12.0432 44.3104 13.2661C43.4438 14.489 41.7662 16.1708 39.2778 18.3114L36.1648 20.9744C35.7834 21.2831 35.358 21.4375 34.8885 21.4375C34.419 21.4375 33.9944 21.2831 33.6147 20.9744ZM34.9039 16.7505C37.5865 14.5113 39.3814 12.9235 40.2886 11.9868C41.1959 11.0502 41.6495 10.246 41.6495 9.57438C41.6495 8.91821 41.4581 8.38823 41.0752 7.98443C40.6923 7.58066 40.1691 7.37878 39.5054 7.37878C39.1008 7.37878 38.7102 7.4881 38.3338 7.70673C37.9574 7.92536 37.4539 8.29503 36.8234 8.81573L34.8897 10.5222L32.9843 8.81573C32.3649 8.28303 31.8576 7.91036 31.4622 7.69773C31.0668 7.48509 30.6807 7.37878 30.3039 7.37878C29.6283 7.37878 29.1018 7.58066 28.7244 7.98443C28.347 8.38823 28.1582 8.91821 28.1582 9.57438C28.1582 10.2443 28.6081 11.0462 29.5078 11.9801C30.4075 12.9141 32.2062 14.5042 34.9039 16.7505Z" fill="white"/>
</svg>
