<svg width="60" height="60" viewBox="0 0 60 60" fill="none" xmlns="http://www.w3.org/2000/svg">
<g clip-path="url(#clip0_54_379)">
<path d="M50.6667 14.5001H45.035C45.3192 13.6992 45.5 12.8209 45.5 11.9167C45.5 7.62842 42.0383 4.16675 37.75 4.16675C35.0375 4.16675 32.6867 5.56175 31.2917 7.65425L30 9.38508L28.7083 7.62841C27.3133 5.56175 24.9625 4.16675 22.25 4.16675C17.9617 4.16675 14.5 7.62842 14.5 11.9167C14.5 12.8209 14.6808 13.6992 14.965 14.5001H9.33332C6.46582 14.5001 4.19249 16.7992 4.19249 19.6667L4.16666 48.0834C4.16666 50.9509 6.46582 53.2501 9.33332 53.2501H50.6667C53.5342 53.2501 55.8333 50.9509 55.8333 48.0834V19.6667C55.8333 16.7992 53.5342 14.5001 50.6667 14.5001ZM37.75 9.33342C39.1708 9.33342 40.3333 10.4959 40.3333 11.9167C40.3333 13.3376 39.1708 14.5001 37.75 14.5001C36.3292 14.5001 35.1667 13.3376 35.1667 11.9167C35.1667 10.4959 36.3292 9.33342 37.75 9.33342ZM22.25 9.33342C23.6708 9.33342 24.8333 10.4959 24.8333 11.9167C24.8333 13.3376 23.6708 14.5001 22.25 14.5001C20.8292 14.5001 19.6667 13.3376 19.6667 11.9167C19.6667 10.4959 20.8292 9.33342 22.25 9.33342ZM50.6667 48.0834H9.33332V42.9168H50.6667V48.0834ZM50.6667 35.1667H9.33332V19.6667H22.4567L17.0833 26.9776L21.2683 30.0001L27.4167 21.6301L30 18.1167L32.5833 21.6301L38.7317 30.0001L42.9167 26.9776L37.5433 19.6667H50.6667V35.1667Z" fill="white"/>
</g>
<defs>
<clipPath id="clip0_54_379">
<rect width="60" height="60" fill="white"/>
</clipPath>
</defs>
</svg>
