<svg width="60" height="60" viewBox="0 0 60 60" fill="none" xmlns="http://www.w3.org/2000/svg">
<path d="M30.5 2.41675C32.7569 2.41675 34.6753 3.20668 36.2552 4.78654C37.8351 6.3664 38.625 8.2848 38.625 10.5417C38.625 12.7987 37.8351 14.7171 36.2552 16.297C34.6753 17.8768 32.7569 18.6667 30.5 18.6667C28.2431 18.6667 26.3246 17.8768 24.7448 16.297C23.1649 14.7171 22.375 12.7987 22.375 10.5417C22.375 8.2848 23.1649 6.3664 24.7448 4.78654C26.3246 3.20668 28.2431 2.41675 30.5 2.41675ZM30.5 21.3751C32.6215 21.3751 34.7205 21.6233 36.7969 22.1199C38.8733 22.6164 40.7465 23.3161 42.4167 24.2188C44.1319 25.0765 45.5087 26.0921 46.5469 27.2657C47.5851 28.4393 48.1042 29.7258 48.1042 31.1251V46.8334C48.1042 47.6008 47.9236 48.3568 47.5625 49.1016C47.2014 49.8464 46.7049 50.5348 46.0729 51.1667C45.441 51.7987 44.7075 52.3855 43.8724 52.9272C43.0373 53.4688 42.1007 53.9654 41.0625 54.4167V48.323C41.0625 46.6077 39.8776 45.2084 37.5078 44.1251C35.138 43.0417 32.8021 42.5001 30.5 42.5001C28.2431 42.5001 26.0651 42.9628 23.9661 43.8881C21.8672 44.8134 20.5694 46.0209 20.0729 47.5105C21.7882 48.1876 23.5486 48.6615 25.3542 48.9324C27.1597 49.2032 29.0104 49.3612 30.9062 49.4063H33.2083V56.448C32.8924 56.5383 32.5651 56.5834 32.2266 56.5834H31.1771C29.5521 56.5834 27.6901 56.4029 25.5911 56.0417C23.4922 55.6806 21.4948 55.1164 19.599 54.349C17.7031 53.5817 16.112 52.5773 14.8255 51.336C13.5391 50.0947 12.8958 48.5938 12.8958 46.8334V31.1251C12.8958 29.7258 13.4149 28.4393 14.4531 27.2657C15.4913 26.0921 16.8455 25.0765 18.5156 24.2188C20.2309 23.3161 22.1267 22.6164 24.2031 22.1199C26.2795 21.6233 28.3785 21.3751 30.5 21.3751ZM30.5 37.6251C31.9896 37.6251 33.2648 37.0947 34.3255 36.0339C35.3863 34.9732 35.9167 33.698 35.9167 32.2084C35.9167 30.7188 35.3863 29.4437 34.3255 28.3829C33.2648 27.3221 31.9896 26.7917 30.5 26.7917C29.0104 26.7917 27.7352 27.3221 26.6745 28.3829C25.6137 29.4437 25.0833 30.7188 25.0833 32.2084C25.0833 33.698 25.6137 34.9732 26.6745 36.0339C27.7352 37.0947 29.0104 37.6251 30.5 37.6251Z" fill="white"/>
</svg>
