<svg width="30" height="34" viewBox="0 0 30 34" fill="none" xmlns="http://www.w3.org/2000/svg">
<path d="M2.2692 31.7314H10.0577V20.9237C10.0577 20.5151 10.1959 20.1726 10.4723 19.8961C10.7488 19.6197 11.0913 19.4814 11.5 19.4814H18.4999C18.9086 19.4814 19.2511 19.6197 19.5276 19.8961C19.804 20.1726 19.9422 20.5151 19.9422 20.9237V31.7314H27.7307V12.9366C27.7307 12.834 27.7083 12.7411 27.6634 12.6577C27.6185 12.5744 27.5576 12.5007 27.4807 12.4366L15.3654 3.32763C15.2628 3.25069 15.141 3.21223 14.9999 3.21223C14.8589 3.21223 14.7371 3.25069 14.6345 3.32763L2.5192 12.4366C2.4423 12.5007 2.3814 12.5744 2.3365 12.6577C2.29163 12.7411 2.2692 12.834 2.2692 12.9366V31.7314ZM0 31.7314V12.943C0 12.4776 0.0990497 12.0436 0.29715 11.6411C0.495216 11.2385 0.783349 10.9046 1.16155 10.6392L13.2769 1.50463C13.7698 1.11743 14.3405 0.923828 14.9889 0.923828C15.6373 0.923828 16.2153 1.11743 16.723 1.50463L28.8383 10.6392C29.2165 10.9046 29.5047 11.2385 29.7028 11.6411C29.9009 12.0436 29.9999 12.4776 29.9999 12.943V31.7314C29.9999 32.3484 29.7759 32.8808 29.328 33.3287C28.8801 33.7767 28.3477 34.0006 27.7307 34.0006H19.1153C18.7067 34.0006 18.3641 33.8624 18.0877 33.5859C17.8113 33.3095 17.673 32.9669 17.673 32.5583V21.7506H12.3268V32.5583C12.3268 32.9669 12.1886 33.3095 11.9122 33.5859C11.6358 33.8624 11.2932 34.0006 10.8845 34.0006H2.2692C1.65223 34.0006 1.1198 33.7767 0.671899 33.3287C0.223966 32.8808 0 32.3484 0 31.7314Z" fill="white"/>
</svg>
