<?xml version="1.0" encoding="utf-8"?>
<!-- Generator: Adobe Illustrator 16.0.0, SVG Export Plug-In . SVG Version: 6.00 Build 0)  -->
<!DOCTYPE svg PUBLIC "-//W3C//DTD SVG 1.1//EN" "http://www.w3.org/Graphics/SVG/1.1/DTD/svg11.dtd">
<svg version="1.1" id="Layer_1" xmlns="http://www.w3.org/2000/svg" xmlns:xlink="http://www.w3.org/1999/xlink" x="0px" y="0px"
	 width="103px" height="101.029px" viewBox="0 0 103 101.029" enable-background="new 0 0 103 101.029" xml:space="preserve">
<g>
	<path fill="none" stroke="#FFFFFF" stroke-width="4" stroke-linecap="round" stroke-linejoin="round" stroke-miterlimit="10" d="
		M74.531,61.497c0-6.468,5.241-11.71,11.71-11.71c2.569,0,4.938,0.836,6.869,2.239V30.268H67.538
		c3.608-1.996,6.057-5.836,6.057-10.251c0-6.469-5.244-11.711-11.711-11.711c-6.47,0-11.71,5.242-11.71,11.711
		c0,4.415,2.445,8.255,6.057,10.251H30.655v23.804c-2.149-2.617-5.407-4.285-9.055-4.285c-6.47,0-11.71,5.242-11.71,11.71
		c0,6.466,5.24,11.71,11.71,11.71c3.647,0,6.905-1.673,9.055-4.289v23.805h21.019c-0.952-1.694-1.5-3.645-1.5-5.723
		c0-6.468,5.24-11.711,11.71-11.711c6.467,0,11.711,5.243,11.711,11.711c0,2.078-0.55,4.029-1.5,5.723H93.11V70.966
		c-1.932,1.403-4.3,2.241-6.869,2.241C79.772,73.207,74.531,67.963,74.531,61.497z"/>
</g>
</svg>
