<?xml version="1.0" encoding="utf-8"?>
<!-- Generator: Adobe Illustrator 16.0.0, SVG Export Plug-In . SVG Version: 6.00 Build 0)  -->
<!DOCTYPE svg PUBLIC "-//W3C//DTD SVG 1.1//EN" "http://www.w3.org/Graphics/SVG/1.1/DTD/svg11.dtd">
<svg version="1.1" id="Layer_1" xmlns="http://www.w3.org/2000/svg" xmlns:xlink="http://www.w3.org/1999/xlink" x="0px" y="0px"
	 width="103px" height="101.029px" viewBox="0 0 103 101.029" enable-background="new 0 0 103 101.029" xml:space="preserve">
<path fill="none" stroke="#FFFFFF" stroke-width="4.1555" stroke-linecap="round" stroke-linejoin="round" stroke-miterlimit="10" d="
	M62.014,20.14c11.729,11.729,11.729,30.75,0,42.481c-11.736,11.729-30.754,11.729-42.486,0c-11.729-11.731-11.729-30.753,0-42.481
	C31.26,8.406,50.277,8.406,62.014,20.14z"/>
<path fill="none" stroke="#FFFFFF" stroke-width="4.1555" stroke-linecap="round" stroke-linejoin="round" stroke-miterlimit="10" d="
	M55.677,26.472c8.234,8.232,8.234,21.581,0,29.815c-8.23,8.233-21.582,8.234-29.814,0c-8.236-8.234-8.232-21.584,0-29.815
	C34.095,18.235,47.441,18.235,55.677,26.472z"/>
<path fill="none" stroke="#FFFFFF" stroke-width="4.1555" stroke-linecap="round" stroke-linejoin="round" stroke-miterlimit="10" d="
	M66.494,58.139L92.995,84.64c0.645,0.645,0.645,1.694-0.003,2.339l-6.619,6.625c-0.65,0.646-1.694,0.646-2.342,0.001L57.528,67.102"
	/>
</svg>
