<?xml version="1.0" encoding="utf-8"?>
<!-- Generator: Adobe Illustrator 16.0.0, SVG Export Plug-In . SVG Version: 6.00 Build 0)  -->
<!DOCTYPE svg PUBLIC "-//W3C//DTD SVG 1.1//EN" "http://www.w3.org/Graphics/SVG/1.1/DTD/svg11.dtd">
<svg version="1.1" id="Layer_1" xmlns="http://www.w3.org/2000/svg" xmlns:xlink="http://www.w3.org/1999/xlink" x="0px" y="0px"
	 width="103px" height="101.029px" viewBox="0 0 103 101.029" enable-background="new 0 0 103 101.029" xml:space="preserve">
<polygon fill="none" stroke="#FFFFFF" stroke-width="4.1496" stroke-linecap="round" stroke-linejoin="round" stroke-miterlimit="10" points="
	69.019,59.604 69.019,41.247 49.062,29.275 29.911,41.247 29.911,59.604 9.56,59.604 9.56,93.126 89.372,93.126 89.372,59.604 "/>
<line fill="none" stroke="#FFFFFF" stroke-width="4.1496" stroke-linecap="round" stroke-linejoin="round" stroke-miterlimit="10" x1="49.062" y1="29.275" x2="49.062" y2="15.102"/>
<polygon fill="none" stroke="#FFFFFF" stroke-width="4.1496" stroke-linecap="round" stroke-linejoin="round" stroke-miterlimit="10" points="
	49.21,9.12 61.18,16.135 49.21,23.15 "/>
<rect x="20.309" y="69.251" fill="none" stroke="#FFFFFF" stroke-width="4.1496" stroke-linecap="round" stroke-linejoin="round" stroke-miterlimit="10" width="9.514" height="8.325"/>
<polygon fill="none" stroke="#FFFFFF" stroke-width="4.1496" stroke-linecap="round" stroke-linejoin="round" stroke-miterlimit="10" points="
	69.019,59.604 69.019,41.247 49.062,29.275 29.911,41.247 29.911,59.604 9.56,59.604 9.56,93.126 89.372,93.126 89.372,59.604 "/>
<rect x="42.398" y="76.4" fill="none" stroke="#FFFFFF" stroke-width="4.1496" stroke-linecap="round" stroke-linejoin="round" stroke-miterlimit="10" width="13.209" height="16.515"/>
<rect x="70.252" y="69.251" fill="none" stroke="#FFFFFF" stroke-width="4.1496" stroke-linecap="round" stroke-linejoin="round" stroke-miterlimit="10" width="9.515" height="8.325"/>
<rect x="44.799" y="47.161" fill="none" stroke="#FFFFFF" stroke-width="4.1496" stroke-linecap="round" stroke-linejoin="round" stroke-miterlimit="10" width="9.515" height="8.324"/>
</svg>
