<?xml version="1.0" encoding="utf-8"?>
<!-- Generator: Adobe Illustrator 16.0.0, SVG Export Plug-In . SVG Version: 6.00 Build 0)  -->
<!DOCTYPE svg PUBLIC "-//W3C//DTD SVG 1.1//EN" "http://www.w3.org/Graphics/SVG/1.1/DTD/svg11.dtd">
<svg version="1.1" id="Layer_1" xmlns="http://www.w3.org/2000/svg" xmlns:xlink="http://www.w3.org/1999/xlink" x="0px" y="0px"
	 width="103px" height="101.029px" viewBox="0 0 103 101.029" enable-background="new 0 0 103 101.029" xml:space="preserve">
<path fill="none" stroke="#FFFFFF" stroke-width="4" stroke-linecap="round" stroke-linejoin="round" stroke-miterlimit="10" d="
	M95.711,73.277c0,1.254-1.018,2.27-2.271,2.27H10.477c-1.253,0-2.273-1.016-2.273-2.27V42.591c0-1.253,1.021-2.271,2.273-2.271
	h82.963c1.254,0,2.271,1.018,2.271,2.271V73.277z"/>
<polygon fill="none" stroke="#FFFFFF" stroke-width="4" stroke-linecap="round" stroke-linejoin="round" stroke-miterlimit="10" points="
	87.632,40.32 17.625,40.32 23.016,12.048 82.246,12.048 "/>
<rect x="71.641" y="75.547" fill="none" stroke="#FFFFFF" stroke-width="4" stroke-linecap="round" stroke-linejoin="round" stroke-miterlimit="10" width="13.461" height="13.491"/>
<rect x="21.667" y="75.547" fill="none" stroke="#FFFFFF" stroke-width="4" stroke-linecap="round" stroke-linejoin="round" stroke-miterlimit="10" width="13.462" height="13.491"/>
<path fill="none" stroke="#FFFFFF" stroke-width="4" stroke-linecap="round" stroke-linejoin="round" stroke-miterlimit="10" d="
	M95.711,73.277c0,1.254-1.018,2.27-2.271,2.27H10.477c-1.253,0-2.273-1.016-2.273-2.27V42.591c0-1.253,1.021-2.271,2.273-2.271
	h82.963c1.254,0,2.271,1.018,2.271,2.271V73.277z"/>
<path fill="none" stroke="#FFFFFF" stroke-width="4" stroke-linecap="round" stroke-linejoin="round" stroke-miterlimit="10" d="
	M87.294,57.935c0,4.271-3.465,7.735-7.74,7.735c-4.273,0-7.734-3.464-7.734-7.735c0-4.275,3.461-7.738,7.734-7.738
	C83.829,50.197,87.294,53.66,87.294,57.935z"/>
<path fill="none" stroke="#FFFFFF" stroke-width="4" stroke-linecap="round" stroke-linejoin="round" stroke-miterlimit="10" d="
	M34.875,57.935c0,4.271-3.465,7.735-7.738,7.735s-7.737-3.464-7.737-7.735c0-4.275,3.464-7.738,7.737-7.738
	S34.875,53.66,34.875,57.935z"/>
</svg>
