<?xml version="1.0" encoding="utf-8"?>
<!-- Generator: Adobe Illustrator 16.0.0, SVG Export Plug-In . SVG Version: 6.00 Build 0)  -->
<!DOCTYPE svg PUBLIC "-//W3C//DTD SVG 1.1//EN" "http://www.w3.org/Graphics/SVG/1.1/DTD/svg11.dtd">
<svg version="1.1" id="Layer_1" xmlns="http://www.w3.org/2000/svg" xmlns:xlink="http://www.w3.org/1999/xlink" x="0px" y="0px"
	 width="103px" height="101.029px" viewBox="0 0 103 101.029" enable-background="new 0 0 103 101.029" xml:space="preserve">
<path fill="none" stroke="#FFFFFF" stroke-width="4" stroke-linecap="round" stroke-linejoin="round" stroke-miterlimit="10" d="
	M61.002,19.662"/>
<path fill="none" stroke="#FFFFFF" stroke-width="4" stroke-linecap="round" stroke-linejoin="round" stroke-miterlimit="10" d="
	M44.667,19.746c-0.02-0.231-0.03-0.467-0.03-0.704c0-4.526,3.67-8.194,8.195-8.194c4.526,0,8.194,3.668,8.194,8.194
	c0,0.208-0.009,0.415-0.024,0.62"/>
<path fill="none" stroke="#FFFFFF" stroke-width="4" stroke-linecap="round" stroke-linejoin="round" stroke-miterlimit="10" d="
	M44.667,19.746"/>
<path fill="none" stroke="#FFFFFF" stroke-width="4" stroke-linecap="round" stroke-linejoin="round" stroke-miterlimit="10" d="
	M24.677,69.967V48.689c0-16.373,11.782-29.646,28.156-29.646l0,0c16.374,0,28.155,13.273,28.155,29.646v20.279"/>
<path fill="none" stroke="#FFFFFF" stroke-width="4" stroke-linecap="round" stroke-linejoin="round" stroke-miterlimit="10" d="
	M90.064,80.152H15.601l0,0c0-5.012,4.062-9.076,9.076-9.076h56.312C86.003,71.076,90.064,75.14,90.064,80.152L90.064,80.152z"/>
<path fill="none" stroke="#FFFFFF" stroke-width="4" stroke-linecap="round" stroke-linejoin="round" stroke-miterlimit="10" d="
	M62.091,81.403c0.169,0.709,0.259,1.448,0.259,2.209c0,5.254-4.262,9.514-9.517,9.514c-5.257,0-9.517-4.26-9.517-9.514
	c0-0.434,0.029-0.857,0.085-1.273"/>
</svg>
