<?xml version="1.0" encoding="utf-8"?>
<!-- Generator: Adobe Illustrator 16.0.0, SVG Export Plug-In . SVG Version: 6.00 Build 0)  -->
<!DOCTYPE svg PUBLIC "-//W3C//DTD SVG 1.1//EN" "http://www.w3.org/Graphics/SVG/1.1/DTD/svg11.dtd">
<svg version="1.1" id="Layer_1" xmlns="http://www.w3.org/2000/svg" xmlns:xlink="http://www.w3.org/1999/xlink" x="0px" y="0px"
	 width="103px" height="101.029px" viewBox="0 0 103 101.029" enable-background="new 0 0 103 101.029" xml:space="preserve">
<path fill="none" stroke="#FFFFFF" stroke-width="4" stroke-linecap="round" stroke-linejoin="round" stroke-miterlimit="10" d="
	M17.632,12.395c2.401-2.542,6.412-2.659,8.956-0.259l55.675,52.546L67.045,80.808L11.369,28.265
	c-2.545-2.403-2.663-6.409-0.261-8.958L17.632,12.395z"/>
<polygon fill="none" stroke="#FFFFFF" stroke-width="4" stroke-linecap="round" stroke-linejoin="round" stroke-miterlimit="10" points="
	82.737,65.324 89.009,86.298 67.712,81.247 "/>
<line fill="none" stroke="#FFFFFF" stroke-width="4" stroke-linecap="round" stroke-linejoin="round" stroke-miterlimit="10" x1="89.013" y1="86.298" x2="96.669" y2="93.523"/>
<line fill="none" stroke="#FFFFFF" stroke-width="4" stroke-linecap="round" stroke-linejoin="round" stroke-miterlimit="10" x1="28.553" y1="15.441" x2="14.78" y2="30.033"/>
<path fill="none" stroke="#FFFFFF" stroke-width="4" stroke-linecap="round" stroke-linejoin="round" stroke-miterlimit="10" d="
	M17.632,12.395c2.401-2.542,6.412-2.659,8.956-0.259l55.675,52.546L67.045,80.808L11.369,28.265
	c-2.545-2.403-2.663-6.409-0.261-8.958L17.632,12.395z"/>
</svg>
