<?xml version="1.0" encoding="utf-8"?>
<!-- Generator: Adobe Illustrator 28.2.0, SVG Export Plug-In . SVG Version: 6.00 Build 0)  -->
<svg version="1.1" id="Layer_1" xmlns="http://www.w3.org/2000/svg" xmlns:xlink="http://www.w3.org/1999/xlink" x="0px" y="0px"
	 viewBox="0 0 331 221" style="enable-background:new 0 0 331 221;" xml:space="preserve">
<style type="text/css">
	.st0{display:none;}
	.st1{display:inline;fill:#FFFFFF;}
	
		.st2{display:inline;fill:#FFFFFF;stroke:#151515;stroke-width:2.7191;stroke-linecap:round;stroke-linejoin:round;stroke-miterlimit:10;}
	.st3{display:inline;}
	.st4{fill:#FFFFFF;stroke:#151515;stroke-width:2.7191;stroke-linecap:round;stroke-linejoin:round;stroke-miterlimit:10;}
	.st5{fill:#C1D1EC;}
	.st6{fill:none;stroke:#E7E7E7;stroke-width:2.7191;stroke-linecap:round;stroke-linejoin:round;stroke-miterlimit:10;}
	.st7{fill:#FFFFFF;stroke:#E7E7E7;stroke-width:2.7191;stroke-linecap:round;stroke-linejoin:round;stroke-miterlimit:10;}
	
		.st8{display:inline;fill:#FFFFFF;stroke:#E7E7E7;stroke-width:2.7191;stroke-linecap:round;stroke-linejoin:round;stroke-miterlimit:10;}
	
		.st9{display:inline;fill:none;stroke:#151515;stroke-width:2.7191;stroke-linecap:round;stroke-linejoin:round;stroke-miterlimit:10;}
	.st10{fill:#F3F3F3;stroke:#151515;stroke-width:3;stroke-linecap:round;stroke-linejoin:round;stroke-miterlimit:10;}
	.st11{opacity:5.000000e-02;}
	.st12{fill:#151515;stroke:#F3F3F3;stroke-width:3;stroke-linecap:round;stroke-linejoin:round;stroke-miterlimit:10;}
	.st13{fill:#FFFFFF;stroke:#151515;stroke-width:3;stroke-linecap:round;stroke-linejoin:round;stroke-miterlimit:10;}
	.st14{fill:#51C3C3;stroke:#151515;stroke-width:3;stroke-linecap:round;stroke-linejoin:round;stroke-miterlimit:10;}
	.st15{fill:none;stroke:#151515;stroke-width:3;stroke-linecap:round;stroke-linejoin:round;stroke-miterlimit:10;}
	.st16{fill:#FFFFFF;stroke:#010101;stroke-width:3;stroke-linecap:round;stroke-linejoin:round;stroke-miterlimit:10;}
</style>
<g class="st0">
	<rect x="147.3" y="195.4" class="st1" width="73.2" height="21.9"/>
	<path class="st2" d="M196.8,204.9V89.4c0-6.5,5.3-11.9,11.9-11.9c2.7,0,5.2,0.9,7.2,2.4c0.5,0.4,0.8,0.6,1.2,1.1
		c2.2,2.2,3.4,5.2,3.4,8.4v128.1"/>
	<path class="st2" d="M117.9,70.5l-31-29.9c-4.9-4.9-4.9-12.8,0-17.7l0,0c4.9-4.9,12.8-4.9,17.7,0l16,16"/>
	<g class="st3">
		<path class="st4" d="M205.4,15.2V197c0,4.4-3.5,8-8,8h-87.6c-4.4,0-8-3.5-8-8V15.2c0-6.4,5.3-11.7,11.7-11.7h80
			C200.2,3.5,205.4,8.7,205.4,15.2z"/>
		<rect x="105.5" y="18.7" class="st5" width="96.3" height="171.7"/>
		<line class="st6" x1="143.6" y1="11.4" x2="164" y2="11.4"/>
		<path class="st7" d="M170.2,11.4c0,0.2-0.2,0.4-0.4,0.4c-0.2,0-0.4-0.2-0.4-0.4c0-0.2,0.2-0.4,0.4-0.4
			C170,11.2,170.2,11.3,170.2,11.4z"/>
	</g>
	<path class="st2" d="M95,141.7l-6.2-3.5c-5.7-3.3-7.7-10.5-4.4-16.2l0,0c3.3-5.7,10.5-7.7,16.2-4.4l6.2,3.5
		c5.7,3.3,7.7,10.5,4.4,16.2l0,0C107.9,142.9,100.7,144.9,95,141.7z"/>
	<path class="st2" d="M207.8,119.7c-4.9,3-8.6,8.1-11.2,13.2c-4.1,8-6.1,16.9-6.1,25.8v25.3c0,0,0.8,23.4,18.2,23.7"/>
	<path class="st2" d="M220.6,89.4v0.7h-5.3c-1.4,0-2.4-1.1-2.4-2.4v-2.7c0-2.2,1.3-4.1,3-5.1c0.5,0.4,0.8,0.6,1.2,1.1
		C219.3,83.1,220.6,86,220.6,89.4z"/>
	<path class="st2" d="M95.5,132.2l3.4-5.8c0.6-1.2,2.1-1.5,3.3-0.9l2.4,1.4c2.8,1.5,3.7,5.1,2.2,7.9l0,0c-1.5,2.8-5.1,3.7-7.9,2.2
		l-2.4-1.4C95.2,134.8,94.9,133.2,95.5,132.2z"/>
	<path class="st2" d="M95,115l-6.2-3.5c-5.7-3.3-7.7-10.5-4.4-16.2l0,0c3.3-5.7,10.5-7.7,16.2-4.4l6.2,3.5
		c5.7,3.3,7.7,10.5,4.4,16.2l0,0C107.9,116.3,100.7,118.3,95,115z"/>
	<path class="st2" d="M95.5,105.5l3.4-5.8c0.6-1.2,2.1-1.5,3.3-0.9l2.4,1.4c2.8,1.5,3.7,5.1,2.2,7.9l0,0c-1.5,2.8-5.1,3.7-7.9,2.2
		l-2.4-1.4C95.2,108.1,94.9,106.7,95.5,105.5z"/>
	<path class="st2" d="M95,168.8l-6.2-3.5c-5.7-3.3-7.7-10.5-4.4-16.2l0,0c3.3-5.7,10.5-7.7,16.2-4.4l6.2,3.5
		c5.7,3.3,7.7,10.5,4.4,16.2l0,0C107.9,170,100.7,172,95,168.8z"/>
	<path class="st2" d="M95.5,159.2l3.4-5.8c0.6-1.2,2.1-1.5,3.3-0.9l2.4,1.4c2.8,1.5,3.7,5.1,2.2,7.9l0,0c-1.5,2.8-5.1,3.7-7.9,2.2
		l-2.4-1.4C95.2,161.8,94.9,160.3,95.5,159.2z"/>
	<circle class="st8" cx="153.8" cy="196.9" r="2.4"/>
	<line class="st9" x1="147.3" y1="204.9" x2="147.3" y2="217.5"/>
	<path class="st2" d="M176.1,85v34.8c0,4,3.2,7.2,7.2,7.2h-45.9c-4,0-7.2-3.2-7.2-7.2V84.9L176.1,85L176.1,85z"/>
	<polyline class="st2" points="144.3,98.6 147.7,95.3 147.7,113.5 	"/>
	<path class="st2" d="M163,100.2c0,2.7-2.2,4.9-4.9,4.9s-4.9-2.2-4.9-4.9s2.2-4.9,4.9-4.9C160.8,95.3,163,97.4,163,100.2z"/>
	<line class="st9" x1="162.1" y1="103" x2="158.1" y2="113.3"/>
	<path class="st9" d="M134.6,74.2h37.3c2.4,0,4.3,1.9,4.3,4.3V85h-45.9v-6.6C130.3,76.1,132.2,74.2,134.6,74.2z"/>
	<polygon class="st2" points="222.8,30 217.9,37.2 222.8,44.9 227.4,37.4 	"/>
	<polygon class="st2" points="237.6,55.2 232.6,62.4 237.6,70.1 242.1,62.6 	"/>
	<polygon class="st2" points="244.8,37.2 241.1,42.4 244.8,48.3 248.2,42.7 	"/>
</g>
<g>
	<path class="st10" d="M177.8,106.7h-20.7c-31.1,0-56.3,25.2-56.3,56.3v41.5H234v-41.6C234.1,131.9,208.9,106.7,177.8,106.7z"/>
	<g>
		<path class="st10" d="M234.6,216.4H100.8c-2.1,0-3.8-1.7-3.8-3.8v-4.4c0-2.1,1.7-3.8,3.8-3.8h133.8c2.1,0,3.8,1.7,3.8,3.8v4.4
			C238.4,214.7,236.7,216.4,234.6,216.4z"/>
		<path class="st10" d="M227.3,132H108.2c-1.8,0-3.3,1.5-3.2,3.3l3.3,66.1c0.1,1.7,1.5,3,3.2,3H224c1.7,0,3.1-1.3,3.2-3l3.3-66.1
			C230.5,133.5,229.1,132,227.3,132z"/>
		<circle class="st10" cx="167.7" cy="170.9" r="7.2"/>
		<g class="st11">
			<path class="st12" d="M224,204.5c1.7,0,3.1-1.3,3.2-3l3.3-66.1c0.1-1.8-1.4-3.3-3.2-3.3H114.2l101.2,72.5L224,204.5L224,204.5z"
				/>
		</g>
	</g>
	<path class="st13" d="M166.2,121.3L166.2,121.3c-6.4,0-11.7-5.3-11.7-11.7V100c0-6.4,5.3-11.7,11.7-11.7l0,0
		c6.4,0,11.7,5.3,11.7,11.7v9.6C178,116,172.7,121.3,166.2,121.3z"/>
	<path class="st13" d="M188.5,62v21.1c0,11.9-9.7,21.6-21.6,21.6c-11.9,0-21.6-9.7-21.6-21.6v-1.8h-1.4c-2.6,0-4.6-2.1-4.6-4.6
		c0-2.6,2.1-4.6,4.6-4.6h1.4V62c0-6.3,2.7-12,7-15.9c3.8-3.5,9-5.7,14.6-5.7c4.2,0,8,1.2,11.3,3.2C184.4,47.4,188.5,54.2,188.5,62z"
		/>
	<path class="st14" d="M188.8,32.6c0,0,11.6,24.8-32.3,23.4c0,0-11.5,1.2-11.3-9.8c0,0,0-8.2,13.1-8.6
		C158.3,37.6,182.8,37.8,188.8,32.6z"/>
	<path d="M179.7,74.3c0,1.2-0.6,1.8-1.8,1.8c-1.2,0-1.8-0.6-1.8-1.8c0-1.2,0.6-1.8,1.8-1.8C179.1,72.4,179.7,73.6,179.7,74.3z"/>
	<path d="M158.2,74.3c0,1.2-0.6,1.8-1.8,1.8c-1.2,0-1.8-0.6-1.8-1.8c0-1.2,0.6-1.8,1.8-1.8C157.6,72.4,158.2,73.6,158.2,74.3z"/>
	<line class="st15" x1="167" y1="73.2" x2="167" y2="79.9"/>
	<line class="st15" x1="105" y1="95" x2="65.1" y2="71.5"/>
	<line class="st15" x1="111.3" y1="84.6" x2="75.9" y2="50.3"/>
	<line class="st15" x1="121.1" y1="74.9" x2="89.4" y2="29.3"/>
	<line class="st15" x1="131.4" y1="69.3" x2="114.2" y2="10.3"/>
	<path class="st16" d="M163.7,86.3c2.4,1.2,4.6,1.5,6.5,0"/>
	<path class="st13" d="M232.3,80.3c-5.4,2.1-6.7,3.9-8.3,11c-1.6-7.1-2.9-8.9-8.3-11c5.4-2.1,6.7-3.9,8.3-11
		C225.6,76.4,226.9,78.1,232.3,80.3z"/>
	<path class="st13" d="M252.7,107c-4.3,1.7-5.3,3.1-6.6,8.8c-1.3-5.7-2.3-7.1-6.6-8.8c4.3-1.7,5.3-3.1,6.6-8.8
		C247.3,103.9,248.4,105.3,252.7,107z"/>
	<line class="st15" x1="100.8" y1="216.4" x2="72.6" y2="216.4"/>
	<line class="st15" x1="253.5" y1="216.4" x2="225.3" y2="216.4"/>
	<line class="st15" x1="265.9" y1="216.4" x2="260.5" y2="216.4"/>
</g>
</svg>
